<svg xmlns="http://www.w3.org/2000/svg" xmlns:xlink="http://www.w3.org/1999/xlink" version="1.1" id="Layer_1" x="0px" y="0px" width="100px" height="100px" viewBox="87 139.445 100 100" enable-background="new 87 139.445 100 100" xml:space="preserve">
<path d="M120.792,175.267c1.466,0.289,4.228-0.125,5.573,2.161c1.262,2.146,1.373,6.511-2.571,7.889  c-3.943,1.377-10.367-0.733-9.039-6.713C115.521,175.16,115.969,174.318,120.792,175.267z"/>
<path d="M157.288,171.544c-2.404-1.155-5.505-1.335-6.104-3.298c-0.116-0.381-0.157-0.843-0.129-1.388  c1.262-1.842,2.021-4.009,2.059-6.306c0.027-1.617-0.262-3.189-0.839-4.65c-1.414-5.034-6.468-8.613-12.212-8.109  c-6.344,0.557-10.396,4.404-11.967,8.796c-2.184,6.11,1.962,11.28,1.962,11.28c3.564,3.4,3.092,3.168,0.99,3.99  c-1.841,0.568-4.786,1.608-7.258,2.629c0,0,2.82,0.885,3.815,2.577c1.203,2.046,1.486,5.859-1.082,7.973  c3.051-1.048,5.555-1.887,5.555-1.887s0.37,10.786,0.172,21.708c-0.185,10.194-0.112,20.509,0.859,22.276  c2.012,3.66,18.483,0.28,19.965-0.944c0.986-0.815,0.097-19.521,0.097-19.521c0.009,0.196-0.019-2.484,0.011-2.308l0.049-22.102  c0.001-0.116,0.375-0.208,0.502-0.208c0.127,0,0.501,0.094,0.501,0.209l-0.052,22.517c0,0.005-0.003,0.01-0.004,0.016  c0.841,3.09,6.81,1.827,6.917,0.041C161.358,200.448,163.942,174.743,157.288,171.544z M138.542,169.618  c-4.36,0-7.894-3.534-7.894-7.893s3.534-7.893,7.894-7.893c4.358,0,7.892,3.534,7.892,7.893S142.9,169.618,138.542,169.618z"/>
<path fill="#000000" d="M117.964,163.005l0.022,10.915c0.843-0.005,1.92,0.137,3.323,0.413c0.417,0.082,0.927,0.114,1.48,0.157  l-0.045-22.558c0.047-0.067,0.074-0.137,0.074-0.208c-0.001-0.477-1.094-0.861-2.44-0.858c-1.264,0.002-2.303,0.345-2.424,0.782  h-0.012v0.085v0c0,0.001,0,0.001,0,0.001l0.004,2.204c-5.352,0.709-10.128,2.932-11.933,4.717  c-4.273,4.228-5.043,13.979-5.043,13.979c2.135-3.354,4.285-6.141,6.831-7.628C112.12,162.485,115.734,162.54,117.964,163.005z"/>
<path fill="#000000" d="M118.009,185.722l0.089,43.262c0,0,0.007,0.152,0.008,0.259c0.001,0.477,0.929,0.906,2.276,0.903  c1.085-0.002,1.988-0.27,2.318-0.603c0.201-0.202,0.201-0.383,0.201-0.383l-0.088-42.688  C121.215,186.632,119.492,186.386,118.009,185.722z"/>
</svg>